<svg xmlns="http://www.w3.org/2000/svg" height="832" preserveAspectRatio="none" style="display: block;" version="1.1" viewBox="0 0 2048 1331" width="1280">
<path d="M 0 0 L 2048 0 L 2048 1331 L 0 1331 L 0 0 z" fill="rgb(251,250,248)" transform="translate(0,0)"></path>
<path d="M 1204.78 412.613 C 1206.87 433.123 1202.97 454.671 1188.92 470.552 C 1166.23 496.187 1126.51 490.124 1094.76 490.059 L 999.65 489.902 L 936.429 489.986 C 922.438 490.007 904.504 490.983 891.282 488.299 C 863.415 481.359 844.656 459.953 843.815 431.499 C 842.664 392.555 839.713 355.41 883.192 338.991 C 891.679 335.786 896.453 335.056 905.693 335.028 C 959.023 334.861 1012.36 335.059 1065.69 335.004 L 1119.61 334.94 C 1151.95 334.911 1181.61 334.308 1198.91 368.994 C 1205.1 381.398 1204.74 394.523 1204.85 408.068 C 1213.66 407.994 1222.47 408.061 1231.28 408.271 C 1225.15 408.438 1208.53 407.557 1205.11 410.069 L 1204.78 412.613 z" fill="rgb(91,69,199)" transform="translate(0,0)"></path>
<path d="M 1231.28 408.271 C 1289.43 408.13 1335.76 402.364 1380.86 447.171 C 1403.62 469.796 1416.28 500.652 1415.98 532.743 C 1415.93 565.746 1402.71 595.103 1379.4 618.086 C 1358.91 638.284 1339.47 646.835 1311.87 653.086 C 1339.67 661.435 1356.42 669.711 1377.22 690.341 C 1420.01 732.803 1414.08 780.453 1413.91 836.151 C 1434.05 836.127 1511.07 834.715 1525.36 838.36 C 1535.97 841.063 1545.66 846.593 1553.38 854.362 C 1574.77 876.087 1567.92 905.322 1569.17 933.051 C 1570.47 961.805 1549.69 987.96 1521.03 992.433 C 1512.61 993.747 1503.38 992.85 1494.84 993.133 C 1433.63 993.079 1372.49 993.335 1311.29 992.957 C 1292.97 992.844 1279.12 988.095 1266.31 974.525 C 1249.14 956.656 1251.19 938.112 1250.74 915.418 C 1250.27 891.448 1249.87 869.878 1269.28 852.187 C 1277.13 845.128 1286.67 840.215 1296.98 837.925 C 1309.28 835.148 1329.42 836.028 1342.69 836.05 L 1409.35 836.134 C 1409.58 781.078 1416.26 735.282 1373.58 693.099 C 1342.36 662.237 1313.07 654.356 1270.59 654.3 L 1103.05 654.185 L 1103.31 650.046 L 1226.33 650.174 C 1251.54 650.195 1298.1 651.982 1321.22 646.227 C 1341.34 641.088 1359.79 630.797 1374.73 616.368 C 1397.76 594.23 1411.25 565.6 1411.69 533.442 C 1411.96 502.888 1400.16 473.465 1378.85 451.566 C 1343.55 415.162 1308.22 412.568 1261.74 412.688 C 1242.75 412.837 1223.77 412.812 1204.78 412.613 L 1205.11 410.069 C 1208.53 407.557 1225.15 408.438 1231.28 408.271 z" fill="rgb(20,17,15)" transform="translate(0,0)"></path>
<path d="M 630.849 771.897 C 631.244 780.665 629.76 831.721 631.841 835.609 L 634.904 836.312 C 660.059 835.181 686.018 836.609 711.223 835.989 C 734.529 835.415 758.443 835.01 776.681 852.025 C 788.79 863.323 794.422 879.158 794.921 895.506 C 794.275 922.887 800.422 954.199 778.993 975.704 C 767.79 987.753 751.444 993.352 735.227 993.25 C 670.955 992.986 607.732 993.055 543.361 993.143 C 506.152 995.165 475.63 971.468 477.114 932.315 C 478.152 904.925 471.241 875.576 493.408 853.855 C 515.536 832.173 543.467 835.813 571.522 835.941 L 630.011 836.045 C 630.278 818.992 628.931 787.976 630.849 771.897 z" fill="rgb(13,87,7)" transform="translate(0,0)"></path>
<path d="M 943.41 650.051 C 946.165 613.848 972.409 604.664 1004.68 606.151 C 1041.32 607.838 1100.93 594.707 1103.31 650.046 L 1103.05 654.185 C 1104.25 692.14 1061.7 697.252 1033.86 695.167 C 996.485 692.368 953.391 706.57 943.736 656.466 C 941.222 654.018 941.233 654.727 937.132 654.339 C 940.073 653.921 941.309 654.246 942.945 651.892 C 937.676 649.358 772.223 650.915 756.603 650.863 C 764.222 649.368 802.951 649.932 813.56 649.931 L 943.41 650.051 z" fill="rgb(86,12,110)" transform="translate(0,0)"></path>
<path d="M 756.603 650.863 C 772.223 650.915 937.676 649.358 942.945 651.892 C 941.309 654.246 940.073 653.921 937.132 654.339 L 824.505 654.289 C 798.676 654.336 754.647 652.759 731.327 658.788 C 708.634 664.835 687.891 676.651 671.115 693.088 C 625.408 738.373 636.948 779.149 634.904 836.312 L 631.841 835.609 C 629.76 831.721 631.244 780.665 630.849 771.897 C 630.976 744.188 644.322 715.799 662.642 695.411 C 686.811 668.683 720.612 652.657 756.603 650.863 z" fill="rgb(20,17,15)" transform="translate(0,0)"></path>
<metadata><recraft-signature>{"signed_by": "recraft", "signature_b64": "NODJBHN1SQZHvB/lku3G9GM38iPHAVz6d0USx+BP1rbvNk5Qxa58M+OQpbHuTGVaddJsiU0aVzKQfzbCSdMJDQ==", "signing_algo": "Ed25519", "generation_timestamp": 1784246817, "identifier": "9fda0892-518b-462e-98bb-616f30b2bbd1"}</recraft-signature></metadata></svg>