<svg xmlns="http://www.w3.org/2000/svg" height="832" preserveAspectRatio="none" style="display: block;" version="1.1" viewBox="0 0 2048 1331" width="1280">
<path d="M 0 0 L 2048 0 L 2048 1331 L 0 1331 L 0 0 z" fill="rgb(251,250,248)" transform="translate(0,0)"></path>
<path d="M 610.191 193.301 C 625.371 192.085 687.876 191.834 700.836 195.091 C 708.18 196.951 714.919 200.677 720.4 205.907 C 728.849 213.992 733.679 225.144 733.795 236.838 C 733.879 248.582 729.255 259.869 720.957 268.179 C 703.14 286.009 677.939 282.147 653.934 282.032 C 653.882 304.229 653.816 326.508 653.922 348.665 C 654.261 355.991 653.983 365.341 660.21 370.492 C 671.681 379.981 693.643 377.461 708.13 377.473 L 774.31 377.317 C 804.778 377.22 829.97 375.103 830.078 414.582 C 837.99 411.855 846.118 409.262 854.103 406.734 C 910.572 388.853 966.658 369.962 1022.86 351.292 C 1034.91 354.359 1054.95 361.623 1066.93 365.624 L 1144.04 391.056 L 1210.59 412.286 C 1288.66 437.526 1284.77 449.049 1284.3 526.058 L 1352.39 526.3 C 1360.19 526.325 1369.48 526.207 1377.07 526.339 C 1399.8 526.735 1405.79 516.695 1405.59 495.603 C 1405.47 482.572 1405.49 467.912 1405.46 454.555 L 1405.49 352.84 C 1384.6 352.909 1354.56 356.172 1338.58 340.798 C 1308.93 314.145 1329.94 261.273 1369.72 263.811 C 1391.19 265.181 1429.4 260.861 1448.71 265.536 C 1455.77 267.28 1462.25 270.836 1467.51 275.853 C 1476.21 284.218 1481.14 295.765 1481.16 307.837 C 1481.21 319.232 1476.92 331.264 1468.69 339.305 C 1452.85 354.791 1430.6 352.923 1410.2 352.829 C 1409.72 388.523 1410.63 424.759 1410.29 460.44 C 1410.19 471.047 1411.03 501.066 1409.29 510.201 C 1408.36 515.034 1405.97 519.466 1402.45 522.903 C 1398.89 526.415 1394.4 528.843 1389.51 529.906 C 1381.61 531.596 1360.85 531.045 1351.45 531.029 L 1284.1 530.847 C 1284.14 686.753 1289.67 770.108 1167.85 888.113 L 1291.28 888.164 C 1310.26 888.162 1330.3 887.276 1349.16 889.061 C 1351.5 889.283 1354.79 890.819 1356.86 891.935 C 1374.35 901.378 1372.41 918.354 1372.31 935.445 C 1372.27 943.216 1372.28 951.246 1372.26 959.102 L 1372.2 1052.3 C 1409.96 1051.79 1447.89 1048.09 1453.02 1097.21 C 1447.62 1143.6 1413.76 1142.73 1376.04 1141.03 C 1350.88 1139.9 1321.07 1147.67 1301.63 1128.01 C 1293.43 1119.75 1288.85 1108.56 1288.91 1096.93 C 1288.98 1085.23 1293.62 1073.77 1301.88 1065.39 C 1318.2 1048.85 1345.06 1051.97 1367.16 1052.12 C 1367.2 1009.28 1367.26 966.423 1367.22 923.581 C 1367.21 913.88 1366.54 906.887 1359.27 899.649 C 1355.78 896.167 1349.41 893.469 1344.51 893.265 C 1326.19 892.501 1306.53 893.087 1288.07 893.127 C 1246.33 893.216 1204.13 892.34 1162.47 893.234 C 1151.44 902.154 1142.35 910.329 1130.74 918.871 C 1096.5 944.074 1061.77 961.935 1023.34 979.224 C 926.443 935.215 841.616 869.619 797.474 770.272 C 793.915 762.26 790.501 754.188 787.097 746.111 C 758.47 745.671 726.838 746.841 698.528 745.927 C 650.71 744.385 653.67 753.359 653.705 797.829 L 653.827 854.983 C 687.422 854.88 726.476 850.508 731.591 897.426 C 734.273 922.035 709.984 945.407 685.873 943.471 C 662.654 941.606 623.157 946.916 601.669 941.753 C 594.2 940.004 587.314 936.347 581.682 931.139 C 563.685 914.268 563.353 885.53 581.151 868.07 C 598.92 850.639 625.626 854.84 648.923 855.056 C 649.136 831.286 648.683 807.509 648.808 783.738 C 648.846 776.333 648.496 768.715 650.182 761.447 C 651.255 756.735 653.629 752.418 657.034 748.987 C 667.977 737.988 696.103 741.067 711.513 741.094 L 785.589 741.293 C 763.767 674.673 764.041 620.005 765.16 551.283 C 765.575 525.846 763.854 499.44 765.376 474.08 C 767.61 436.878 794.924 426.416 824.887 416.393 C 824.945 414.232 824.963 412.071 824.942 409.91 C 824.466 375.245 789.876 381.781 765.033 381.909 L 701.083 382.242 C 683.019 382.316 652.083 384.996 649.965 360.642 C 647.806 335.811 648.997 307.172 649.069 282.016 C 627.492 281.653 603.876 285.506 586.068 272.341 C 576.84 265.6 570.735 255.41 569.146 244.093 C 567.38 232.421 570.413 220.531 577.556 211.132 C 586.096 199.943 596.608 195.081 610.191 193.301 z" fill="rgb(20,17,15)" transform="translate(0,0)"></path>
<path d="M 1022.76 357.187 C 1026.47 357.187 1030.5 358.751 1034.05 359.911 C 1072.55 372.488 1110.28 385.065 1148.84 397.67 C 1178.62 407.403 1207.7 415.933 1237.64 426.273 C 1253.27 431.767 1267.83 441.665 1274.52 457.298 C 1277.82 464.982 1280.1 474.522 1279.83 482.763 C 1277.73 546.098 1283.89 617.567 1275.75 679.754 C 1272.72 703.23 1266.9 726.261 1258.41 748.36 C 1216.66 856.975 1129.84 926.515 1026.27 972.659 C 1015.18 976.498 934.472 924.246 922.654 915.568 C 854.077 865.102 805.129 796.197 782.416 713.817 C 763.626 645.664 772.054 574.947 769.891 505.129 C 769.584 495.239 769.249 481.894 770.271 472.364 C 771.037 464.878 773.444 457.652 777.321 451.203 C 790.224 429.385 814.014 424.836 836.338 417.47 C 861.968 409.005 887.675 400.774 913.456 392.777 C 947.964 381.81 988.748 366.176 1022.76 357.187 z" fill="rgb(180,165,254)" transform="translate(0,0)"></path>
<path d="M 1015.28 534.201 C 1018.72 533.792 1022.18 533.6 1025.64 533.627 C 1041.52 533.601 1056.74 539.942 1067.9 551.231 C 1088.04 571.621 1086.18 594.045 1085.86 619.978 C 1106.99 623.935 1113.1 631.87 1113.14 653.367 C 1113.59 671.514 1112.77 692.244 1113.19 710.047 C 1113.93 741.99 1115.12 761.2 1075.69 759.939 C 1064.25 759.574 1047.65 759.768 1035.5 759.701 C 1009.05 759.608 981.258 760.746 954.922 758.877 C 946.123 757.034 937.199 748.319 936.446 739.468 C 935.25 725.416 935.562 712.113 935.672 698.272 C 935.815 680.293 935.251 662.665 936.199 644.816 C 937.126 627.351 947.939 622.26 963.157 620.733 C 962.664 577.93 966.247 545.45 1015.28 534.201 z" fill="rgb(20,17,15)" transform="translate(0,0)"></path>
<path d="M 1021.1 556.272 C 1063.92 554.848 1063.93 589.486 1063.93 620.888 L 1031.05 620.763 L 985.354 620.872 C 984.823 590.054 983.477 562.704 1021.1 556.272 z" fill="rgb(180,165,254)" transform="translate(0,0)"></path>
<path d="M 1023.48 668.157 C 1033.17 669.38 1040.43 674.402 1042.45 684.974 C 1043.57 690.863 1037.95 696.122 1034.29 700.35 C 1033.94 709.788 1035.94 712.054 1026.03 714.996 C 1020.13 714.082 1012.89 712.126 1014.23 703.494 C 1015.93 697.522 1008.54 695.948 1007.26 689.982 C 1004.62 677.658 1012.85 671.006 1023.48 668.157 z" fill="rgb(180,165,254)" transform="translate(0,0)"></path>
<path d="M 1328 1057.13 C 1341.38 1055.96 1356.65 1056.67 1370.21 1056.54 C 1397.99 1056.28 1439.18 1051.79 1447.39 1087.2 C 1449.91 1097.85 1447.98 1109.07 1442.05 1118.27 C 1434.89 1129.31 1425.72 1134.23 1413.19 1136.77 C 1390.36 1139.16 1363.61 1136.39 1340.44 1137.28 C 1331.29 1137.63 1321.34 1136.14 1313.33 1131.43 C 1304.13 1126.11 1297.45 1117.31 1294.79 1107.02 C 1292.15 1096.71 1293.83 1085.77 1299.45 1076.73 C 1306.36 1065.37 1315.57 1060.3 1328 1057.13 z" fill="rgb(3,30,170)" transform="translate(0,0)"></path>
<path d="M 675.777 197.459 C 691.717 197.419 705.18 197.547 717.479 209.771 C 724.908 217.21 729.055 227.309 729 237.821 C 728.949 287.859 662.899 277.922 629.25 277.693 C 612.978 277.836 599.588 278.25 586.36 266.59 C 578.542 259.785 573.811 250.105 573.247 239.756 C 572.656 229.201 576.32 218.85 583.42 211.019 C 598.2 194.907 619.154 197.862 639.464 197.923 C 651.571 198.059 663.678 197.904 675.777 197.459 z" fill="rgb(3,30,170)" transform="translate(0,0)"></path>
<path d="M 610.384 859.331 C 615.568 858.95 624.334 858.688 629.643 859.066 C 661.514 861.335 716.459 847.351 726.13 890.174 C 728.487 900.671 726.528 911.675 720.695 920.714 C 713.664 931.633 704.726 936.226 692.49 938.981 L 642.137 939.296 C 624.207 939.362 603.608 941.599 588.491 930.432 C 580.069 924.296 574.528 914.979 573.156 904.65 C 571.657 893.98 574.601 883.161 581.302 874.723 C 589.07 864.796 598.253 860.838 610.384 859.331 z" fill="rgb(13,148,136)" transform="translate(0,0)"></path>
<path d="M 1366.62 268.375 C 1387.24 267.381 1408.58 268.399 1429.25 268.002 C 1451.1 267.582 1471.42 276.746 1476.02 299.926 C 1478.18 310.39 1475.99 321.282 1469.96 330.101 C 1462.35 341.156 1452.98 345.605 1440.23 347.907 C 1422.97 348.336 1405.67 347.961 1388.41 348.219 C 1373.03 348.45 1357.21 348.759 1344.26 339.08 C 1335.9 332.889 1330.47 323.517 1329.27 313.187 C 1327.95 302.459 1330.95 291.647 1337.63 283.143 C 1345.36 273.453 1354.68 269.759 1366.62 268.375 z" fill="rgb(13,148,136)" transform="translate(0,0)"></path>
<metadata><recraft-signature>{"signed_by": "recraft", "signature_b64": "p5F7KKgbEB0FFREYbBpPQoereypAMXHfpk5qqsmMwjDql786P4CCzj4c0Vm0RUge+tvyxdjszZcYDuarbwN2Dg==", "signing_algo": "Ed25519", "generation_timestamp": 1784247018, "identifier": "9092e6d9-07d5-4771-94b8-e575395455b3"}</recraft-signature></metadata></svg>