<svg xmlns="http://www.w3.org/2000/svg" height="832" preserveAspectRatio="none" style="display: block;" version="1.1" viewBox="0 0 2048 1331" width="1280">
<path d="M 0 0 L 2048 0 L 2048 1331 L 0 1331 L 0 0 z" fill="rgb(251,250,248)" transform="translate(0,0)"></path>
<path d="M 776.27 493.141 C 749.902 493.249 721.321 496.58 700.725 477.897 C 689.813 468.458 683.646 453.707 683.546 439.284 C 683.389 413.305 678.045 383.469 697.237 362.481 C 718.962 338.724 753.73 343.925 783.033 343.881 C 799.764 343.856 828.419 342.13 843.654 345.524 C 852.828 347.474 861.285 351.921 868.09 358.376 C 883.951 373.449 886.917 390.295 887.566 410.731 C 934.457 410.589 967.479 406.683 1005.04 442.91 C 1022.42 459.671 1035.72 488.283 1036.32 512.777 C 1036.96 522.715 1036.8 533.024 1036.79 543.01 C 1061.68 542.682 1079.23 543.107 1098.71 562.116 C 1121.47 584.328 1115.48 609.219 1117.32 635.831 L 1117.2 651.149 L 1117.32 670.699 L 1117.26 685.238 C 1117.26 698.702 1117.69 713.567 1116.78 726.059 C 1113.95 764.948 1080.4 789.078 1042.84 786.677 C 1040.63 786.536 1036.49 786.735 1034.22 787.008 L 1018.7 787.27 C 1018.66 791.121 1018.75 796.846 1018.34 800.506 L 1018.29 787.061 C 995.396 787.017 975.69 785.137 958.347 767.828 C 936.239 745.763 940.051 716.195 940.022 687.425 L 939.943 672.286 L 939.871 651.336 L 905.629 651.335 C 858.646 651.255 822.878 646.165 794.515 603.204 C 775.028 573.687 775.991 546.405 776.27 512.534 C 776.106 506.386 776.262 499.355 776.27 493.141 z" fill="rgb(251,250,248)" transform="translate(0,0)"></path>
<path d="M 1036.32 512.777 C 1036.96 522.715 1036.8 533.024 1036.79 543.01 C 1061.68 542.682 1079.23 543.107 1098.71 562.116 C 1121.47 584.328 1115.48 609.219 1117.32 635.831 L 1117.2 651.149 L 1117.32 670.699 L 1117.26 685.238 C 1117.26 698.702 1117.69 713.567 1116.78 726.059 C 1113.95 764.948 1080.4 789.078 1042.84 786.677 C 1040.63 786.536 1036.49 786.735 1034.22 787.008 L 1018.7 787.27 C 1018.66 791.121 1018.75 796.846 1018.34 800.506 L 1018.29 787.061 C 995.396 787.017 975.69 785.137 958.347 767.828 C 936.239 745.763 940.051 716.195 940.022 687.425 L 939.943 672.286 L 939.871 651.336 L 939.851 635.864 C 939.663 610.051 937.861 584.95 957.07 564.614 C 977.658 542.818 995.188 543.625 1021.13 542.544 C 1025.02 542.21 1032.23 542.62 1036.4 542.74 L 1036.32 512.777 z" fill="rgb(39,25,139)" transform="translate(0,0)"></path>
<path d="M 776.27 493.141 C 749.902 493.249 721.321 496.58 700.725 477.897 C 689.813 468.458 683.646 453.707 683.546 439.284 C 683.389 413.305 678.045 383.469 697.237 362.481 C 718.962 338.724 753.73 343.925 783.033 343.881 C 799.764 343.856 828.419 342.13 843.654 345.524 C 852.828 347.474 861.285 351.921 868.09 358.376 C 883.951 373.449 886.917 390.295 887.566 410.731 L 887.546 426 C 887.136 447.246 886.371 460.19 870.214 476.893 C 851.251 496.496 818.344 493.079 791.888 493.246 C 791.892 499.753 792.313 536.264 791.589 540.796 C 790.055 537.554 791.02 499.266 791.107 493.161 L 777.047 493.123 C 777.074 499.753 777.289 505.958 776.27 512.534 C 776.106 506.386 776.262 499.355 776.27 493.141 z" fill="rgb(44,125,42)" transform="translate(0,0)"></path>
<path d="M 777.047 493.123 L 791.107 493.161 C 791.02 499.266 790.055 537.554 791.589 540.796 C 792.608 569.218 799.02 589.692 820.195 610.546 C 851.633 641.509 898.164 635.875 939.851 635.864 L 939.871 651.336 L 905.629 651.335 C 858.646 651.255 822.878 646.165 794.515 603.204 C 775.028 573.687 775.991 546.405 776.27 512.534 C 777.289 505.958 777.074 499.753 777.047 493.123 z" fill="rgb(20,17,15)" transform="translate(0,0)"></path>
<path d="M 887.566 410.731 C 934.457 410.589 967.479 406.683 1005.04 442.91 C 1022.42 459.671 1035.72 488.283 1036.32 512.777 L 1036.4 542.74 C 1032.23 542.62 1025.02 542.21 1021.13 542.544 L 1021.13 533.084 C 1021.11 502.012 1017.77 475.681 993.923 452.244 C 963.332 422.185 926.171 425.636 887.546 426 L 887.566 410.731 z" fill="rgb(20,17,15)" transform="translate(0,0)"></path>
<path d="M 729.941 811.326 C 735.635 810.813 741.375 811.266 746.918 812.666 C 772.485 819.124 788.845 844.087 784.563 870.107 C 780.281 896.127 756.783 914.531 730.495 912.455 C 704.208 910.379 683.89 888.514 683.746 862.145 C 683.602 835.775 703.678 813.69 729.941 811.326 z" fill="rgb(39,25,139)" transform="translate(0,0)"></path>
<path d="M 1267.02 503.832 C 1241.51 498.801 1224.19 474.965 1227.28 449.151 C 1230.37 423.338 1252.83 404.267 1278.81 405.402 C 1304.78 406.537 1325.49 427.495 1326.32 453.48 C 1327.15 479.466 1307.81 501.699 1281.96 504.486 C 1276.98 505.023 1271.94 504.803 1267.02 503.832 z" fill="rgb(39,25,139)" transform="translate(0,0)"></path>
<path d="M 1277.06 790.383 C 1282.42 789.668 1287.87 789.835 1293.18 790.877 C 1318.53 795.853 1335.82 819.448 1332.92 845.12 C 1330.03 870.791 1307.92 889.947 1282.1 889.156 C 1256.28 888.365 1235.38 867.892 1234.07 842.092 C 1232.75 816.291 1251.45 793.798 1277.06 790.383 z" fill="rgb(44,125,42)" transform="translate(0,0)"></path>
<path d="M 1018.37 965.222 C 1019.64 968.46 1019.28 971.599 1019.25 975.135 L 1034.1 974.94 C 1039.71 976.348 1044.23 977.733 1049.39 980.505 C 1061.12 986.82 1069.81 997.587 1073.52 1010.38 C 1077.06 1023.07 1075.43 1036.64 1068.97 1048.12 C 1062.71 1059.35 1052.15 1067.56 1039.72 1070.84 C 1012.31 1078.21 983.728 1061.49 977.061 1033.86 C 974.289 1021.93 976.381 1009.38 982.875 998.991 C 991.585 985.152 1003.33 979.301 1018.48 975.696 L 1018.37 965.222 z" fill="rgb(39,25,139)" transform="translate(0,0)"></path>
<path d="M 729.941 811.326 C 729.791 805.471 729.691 799.616 729.639 793.76 C 729.438 750.797 745.394 715.643 782.306 691.903 C 813.658 671.739 844.107 672.257 879.891 672.219 L 939.943 672.286 L 940.022 687.425 L 880.772 687.436 C 867.137 687.411 851.425 686.548 838.03 688.192 C 781.092 695.178 745.378 736.797 746.061 793.843 C 746.162 800.124 746.448 806.401 746.918 812.666 C 741.375 811.266 735.635 810.813 729.941 811.326 z" fill="rgb(91,69,199)" transform="translate(0,0)"></path>
<path d="M 1267.02 503.832 C 1271.94 504.803 1276.98 505.023 1281.96 504.486 C 1282.28 547.455 1285.81 584.848 1252.58 618.713 C 1229.63 642.097 1202.94 651.189 1170.58 651.061 C 1153.57 650.994 1134.17 650.648 1117.2 651.149 L 1117.32 635.831 L 1171.54 635.757 C 1209.52 635.423 1240.83 620.662 1257.47 585.076 C 1269.63 559.078 1267.25 531.682 1267.02 503.832 z" fill="rgb(44,125,42)" transform="translate(0,0)"></path>
<path d="M 1117.32 670.699 C 1167.42 670.399 1220.31 663.791 1258.08 702.035 C 1283.43 727.695 1292.55 755.823 1293.18 790.877 C 1287.87 789.835 1282.42 789.668 1277.06 790.383 C 1276.31 766.819 1274.2 751.011 1261.05 730.532 C 1227.76 678.706 1170.8 683.873 1117.26 685.238 L 1117.32 670.699 z" fill="rgb(91,69,199)" transform="translate(0,0)"></path>
<path d="M 1018.7 787.27 L 1034.22 787.008 C 1034.19 849.105 1033.47 912.949 1034.1 974.94 L 1019.25 975.135 C 1019.28 971.599 1019.64 968.46 1018.37 965.222 C 1016.87 913.895 1018.14 852.286 1018.34 800.506 C 1018.75 796.846 1018.66 791.121 1018.7 787.27 z" fill="rgb(20,17,15)" transform="translate(0,0)"></path>
<metadata><recraft-signature>{"signed_by": "recraft", "signature_b64": "QVtPrHAbic8lRkdNlDX0QK6XsJSccZYg+P1k5JvfAeEBXEAGYJHrQJ1U9JJ1xMROy3QTfJpKnYZC14iOHN+UBg==", "signing_algo": "Ed25519", "generation_timestamp": 1784247041, "identifier": "a66ffa91-956c-4bd8-8bc6-f2c2ae0bd1ac"}</recraft-signature></metadata></svg>