<svg xmlns="http://www.w3.org/2000/svg" height="832" preserveAspectRatio="none" style="display: block;" version="1.1" viewBox="0 0 2048 1331" width="1280">
<path d="M 0 0 L 2048 0 L 2048 1331 L 0 1331 L 0 0 z" fill="rgb(251,250,248)" transform="translate(0,0)"></path>
<path d="M 727.719 719.198 C 727.517 718.692 727.335 718.32 727.306 717.74 C 725.689 685.912 772.358 669.729 796.949 663.018 C 880.556 640.203 969.28 640.256 1054.91 649.28 C 1078.91 651.81 1101.66 657.835 1125.31 661.363 C 1125.5 661.343 1125.69 661.323 1125.88 661.303 L 1126.12 661.79 C 1126.05 665.403 1125.39 666.858 1127.1 669.491 C 1129.73 668.598 1130.72 666.956 1132.56 664.811 L 1133.31 664.669 C 1156.63 672.555 1196.74 684.869 1196.13 715.188 L 1195.99 717.584 L 1195.8 723.021 C 1197.21 759.596 1195.35 796.985 1195.97 833.629 C 1196.04 837.777 1196.14 843.059 1195.85 847.106 C 1195.85 850.174 1196.01 854.944 1195.75 857.864 C 1197.12 876.144 1196.24 895.184 1196.27 913.545 C 1196.3 925.772 1195.81 935.24 1186.74 944.194 C 1143.4 987.005 1012.38 995.112 952.211 994.556 C 899.411 994.068 774.564 983.649 738.001 945.699 C 734.073 941.623 730.962 937.13 729.44 931.636 C 725.523 917.498 727.722 874.544 728.198 857.78 L 727.974 848.808 C 727.752 808.033 727.785 767.258 728.072 726.484 L 727.719 719.198 z" fill="rgb(110,254,238)" transform="translate(0,0)"></path>
<path d="M 727.719 719.198 C 727.517 718.692 727.335 718.32 727.306 717.74 C 725.689 685.912 772.358 669.729 796.949 663.018 C 880.556 640.203 969.28 640.256 1054.91 649.28 C 1078.91 651.81 1101.66 657.835 1125.31 661.363 C 1125.5 661.343 1125.69 661.323 1125.88 661.303 L 1126.12 661.79 C 1126.05 665.403 1125.39 666.858 1127.1 669.491 C 1129.73 668.598 1130.72 666.956 1132.56 664.811 L 1133.31 664.669 C 1156.63 672.555 1196.74 684.869 1196.13 715.188 L 1195.99 717.584 L 1192.81 719.933 L 1192.67 722.215 C 1174.92 744.665 1127.32 757.44 1100.59 763.224 C 1005.53 783.79 903.827 783.457 809.223 760.489 C 785.702 754.778 761.591 747.548 741.476 733.689 C 737.135 730.698 731.813 723.444 728.808 719.066 L 727.719 719.198 z" fill="rgb(110,254,238)" transform="translate(0,0)"></path>
<path d="M 1192.81 719.933 C 1194.12 717.294 1193.9 717.102 1196.13 715.188 L 1195.99 717.584 L 1192.81 719.933 z" fill="rgb(13,148,136)" transform="translate(0,0)"></path>
<path d="M 728.198 857.78 L 728.741 857.897 C 743.842 895.677 877.671 914.846 916.694 917.062 C 996.093 921.571 1084.77 912.124 1159.58 884.547 C 1170.71 880.447 1191.16 869.865 1195 858.304 L 1195.75 857.864 C 1197.12 876.144 1196.24 895.184 1196.27 913.545 C 1196.3 925.772 1195.81 935.24 1186.74 944.194 C 1143.4 987.005 1012.38 995.112 952.211 994.556 C 899.411 994.068 774.564 983.649 738.001 945.699 C 734.073 941.623 730.962 937.13 729.44 931.636 C 725.523 917.498 727.722 874.544 728.198 857.78 z" fill="rgb(110,254,238)" transform="translate(0,0)"></path>
<path d="M 727.719 719.198 L 728.808 719.066 C 731.813 723.444 737.135 730.698 741.476 733.689 C 761.591 747.548 785.702 754.778 809.223 760.489 C 903.827 783.457 1005.53 783.79 1100.59 763.224 C 1127.32 757.44 1174.92 744.665 1192.67 722.215 L 1192.81 719.933 L 1195.99 717.584 L 1195.8 723.021 L 1195.29 723.22 C 1184.9 752.355 1120.13 766.374 1092.93 771.924 C 988.348 793.264 874.664 789.877 772.749 757.254 C 755.148 751.553 738.192 742.201 728.072 726.484 L 727.719 719.198 z" fill="rgb(20,17,15)" transform="translate(0,0)"></path>
<path d="M 1195.85 847.106 C 1195.85 850.174 1196.01 854.944 1195.75 857.864 L 1195 858.304 C 1191.16 869.865 1170.71 880.447 1159.58 884.547 C 1084.77 912.124 996.093 921.571 916.694 917.062 C 877.671 914.846 743.842 895.677 728.741 857.897 L 728.198 857.78 L 727.974 848.808 C 728.897 850.626 730.413 853.378 731.155 855.168 C 753.04 883.753 830.15 897.78 864.935 903.764 C 948.18 918.085 1037.73 911.114 1119.37 890.101 C 1141.44 884.418 1179.21 873.457 1192.85 854.409 C 1193.68 851.664 1194.66 849.687 1195.85 847.106 z" fill="rgb(20,17,15)" transform="translate(0,0)"></path>
<path d="M 1130.09 590.553 C 1104.02 590.239 1079.9 591.113 1060.1 570.489 C 1041.97 551.598 1041.7 530.032 1041.66 505.666 C 1041.59 473.253 1040.82 440.787 1041.13 408.37 C 1041.33 387.616 1047.52 371.837 1062.62 357.571 C 1085.12 336.312 1109.78 338.096 1137.97 338.199 L 1192.99 338.367 L 1291.6 338.276 C 1328.7 338.23 1368.67 331.719 1396.17 362.065 C 1404.19 370.743 1409.85 381.332 1412.61 392.821 C 1416.34 408.841 1415.64 444.829 1414.92 462.578 C 1413.5 497.337 1423.73 545.08 1394.7 569.904 C 1368.62 592.198 1340.74 590.689 1309.04 590.295 C 1277.03 590.941 1243.31 589.148 1211.4 590.729 L 1162.2 636.565 C 1153.71 644.56 1140.9 656.116 1133.31 664.669 L 1132.56 664.811 C 1130.72 666.956 1129.73 668.598 1127.1 669.491 C 1125.39 666.858 1126.05 665.403 1126.12 661.79 L 1125.88 661.303 C 1127.23 639.189 1129.59 612.365 1130.09 590.553 z" fill="rgb(23,17,126)" transform="translate(0,0)"></path>
<path d="M 1121.09 437.912 C 1137.61 435.291 1153.17 446.418 1156.04 462.898 C 1158.9 479.378 1148 495.104 1131.57 498.21 C 1120.72 500.26 1109.61 496.308 1102.49 487.867 C 1095.37 479.427 1093.35 467.807 1097.2 457.46 C 1101.06 447.113 1110.18 439.643 1121.09 437.912 z" fill="rgb(20,17,15)" transform="translate(0,0)"></path>
<path d="M 1316.62 437.972 C 1333.23 435.275 1348.9 446.522 1351.65 463.123 C 1354.4 479.725 1343.21 495.426 1326.62 498.236 C 1309.95 501.061 1294.15 489.801 1291.39 473.119 C 1288.62 456.438 1299.93 440.682 1316.62 437.972 z" fill="rgb(20,17,15)" transform="translate(0,0)"></path>
<path d="M 1219.57 438.08 C 1236.11 435.769 1251.42 447.217 1253.88 463.736 C 1256.35 480.254 1245.04 495.673 1228.55 498.29 C 1211.84 500.941 1196.17 489.454 1193.67 472.718 C 1191.18 455.981 1202.81 440.422 1219.57 438.08 z" fill="rgb(20,17,15)" transform="translate(0,0)"></path>
<metadata><recraft-signature>{"signed_by": "recraft", "signature_b64": "iz88DIAMU+f6lkCpNDjVfw/MwB+FffHEbeCbe1TM0MQ+PS3yBfcUyLlc5p+6yld52lXfKUEWIDfXFpLWEYbdCQ==", "signing_algo": "Ed25519", "generation_timestamp": 1784247016, "identifier": "bf405b2b-a0b7-413a-857b-d2835ff81d4d"}</recraft-signature></metadata></svg>