<svg xmlns="http://www.w3.org/2000/svg" height="832" preserveAspectRatio="none" style="display: block;" version="1.1" viewBox="0 0 2048 1331" width="1280">
<path d="M 0 0 L 2048 0 L 2048 1331 L 0 1331 L 0 0 z" fill="rgb(251,250,248)" transform="translate(0,0)"></path>
<path d="M 1276.85 521.252 C 1230.97 503.619 1265.88 456.056 1294.31 472.302 C 1300.25 475.674 1304.59 481.284 1306.36 487.879 C 1311.15 505.486 1300.16 517.066 1283.94 521.217 L 1283.97 545.425 C 1294.55 547.706 1303.81 554.95 1306.91 565.578 C 1308.86 572.297 1308.04 579.516 1304.63 585.626 C 1299.5 594.657 1293.24 596.657 1283.93 599.266 C 1283.17 609.132 1283.47 619.949 1283.53 629.919 C 1295.84 631.527 1297.65 633.629 1305.38 643.318 C 1312.91 643.621 1320.45 643.864 1327.98 644.048 C 1360.19 644.641 1359.65 625.975 1359.06 600.469 C 1326.19 593.933 1320.86 558.018 1351.38 547.647 L 1359.25 547.044 C 1386.62 551.097 1392.04 581.295 1371.76 595.161 C 1370.18 596.24 1368.55 597.237 1366.87 598.148 C 1367.22 630.079 1367.05 650.747 1327.79 650.828 C 1321.12 650.819 1314.45 650.76 1307.78 650.652 C 1307.17 668.373 1301.51 676.393 1284.12 681.11 L 1284.07 713.696 C 1336.84 714.845 1328.12 758.578 1329.02 794.816 C 1329.85 827.823 1324.71 852.168 1285.74 849.906 C 1282.93 853.366 1284.12 890.947 1284.14 897.842 C 1294.41 901.151 1302.8 905.593 1306.09 916.781 C 1307.98 923.318 1307.22 930.333 1303.99 936.319 C 1300.57 942.617 1294.8 947.305 1287.93 949.357 C 1269.72 954.622 1257.78 941.532 1253.6 925.094 L 1224.63 925.015 L 1224.07 928.018 C 1223.31 932.259 1222.83 934.449 1220.37 938.155 C 1216.47 944.01 1210.42 948.099 1203.54 949.54 C 1196.25 951.036 1188.66 949.502 1182.53 945.291 C 1174.58 939.773 1172.18 934.145 1170.63 925.086 L 1139.4 925.125 C 1135.86 945.723 1118.97 957.473 1099.8 946.476 C 1093.26 942.741 1088.46 936.561 1086.47 929.293 C 1081.56 911.08 1093.86 901.426 1109.88 897.233 L 1109.96 849.943 C 1093 850.84 1069.34 850.081 1052 850.058 L 940.931 850.003 L 941.116 898.429 C 984.569 908.491 965.915 957.068 930.351 949.513 C 919.258 947.156 913.817 935.997 911.816 925.585 L 885.661 925.196 C 883.341 941.824 873.847 953.197 855.851 950.098 C 848.419 948.811 841.834 944.548 837.618 938.294 C 825.144 920.098 836.989 902.382 857.131 898.376 C 857.201 883.726 856.756 865.046 857.465 850.722 C 846.479 846.341 804.214 854.676 783.563 846.595 C 773.862 842.8 766.178 836.236 762.094 826.524 C 756.638 813.548 756.143 747.807 761.676 734.9 C 766.005 724.801 774.336 719.781 784.171 715.907 C 784.34 679.524 783.978 643.141 783.084 606.768 L 790.875 606.542 C 810.799 604.391 821.922 590.847 824.841 571.913 L 824.545 564.078 L 1000.86 564.348 C 1003.93 554.962 1012.03 548.108 1021.79 546.637 C 1025.55 546.071 1029.38 546.332 1033.03 547.401 C 1044.3 550.706 1051.97 561.127 1051.78 572.869 C 1051.6 584.61 1043.59 594.781 1032.23 597.725 L 1031.85 598.985 C 1030.63 602.624 1031.18 621.479 1031.01 626.862 C 1044.3 631.427 1047.51 634.244 1051.79 647.816 C 1060.86 647.483 1073.99 648.032 1082.49 647.197 C 1081.79 650.08 1081.59 653.061 1081.89 656.012 C 1083.1 667.929 1092.22 677.516 1104.06 679.316 C 1104.4 690.404 1104.18 703.144 1104.89 713.992 C 1107.54 714.069 1110.19 714.105 1112.84 714.101 L 1193.24 714.139 L 1200.8 714.087 L 1276.97 713.938 L 1276.97 680.612 C 1266.49 676.679 1258.33 671.741 1255.22 660.164 C 1253.57 654.118 1254.44 647.662 1257.62 642.265 C 1262.45 634.252 1268.17 631.94 1276.74 629.822 L 1276.64 598.523 C 1247.19 586.974 1246.69 554.628 1276.86 546.232 L 1276.85 521.252 z" fill="rgb(23,82,204)" transform="translate(0,0)"></path>
<path d="M 1275.3 849.977 C 1263.2 845.796 1253.83 842.363 1247.5 829.677 C 1243.25 820.951 1242.74 810.865 1246.09 801.755 C 1249.59 792.262 1256.75 784.569 1265.97 780.401 C 1275.48 776.088 1286.31 775.785 1296.04 779.559 C 1325.7 790.749 1324.89 836.558 1295.01 846.759 C 1291.95 847.803 1288.79 848.856 1285.74 849.906 C 1282.93 853.366 1284.12 890.947 1284.14 897.842 C 1294.41 901.151 1302.8 905.593 1306.09 916.781 C 1307.98 923.318 1307.22 930.333 1303.99 936.319 C 1300.57 942.617 1294.8 947.305 1287.93 949.357 C 1269.72 954.622 1257.78 941.532 1253.6 925.094 L 1224.63 925.015 L 1224.07 928.018 C 1223.31 932.259 1222.83 934.449 1220.37 938.155 C 1216.47 944.01 1210.42 948.099 1203.54 949.54 C 1196.25 951.036 1188.66 949.502 1182.53 945.291 C 1174.58 939.773 1172.18 934.145 1170.63 925.086 L 1139.4 925.125 C 1135.86 945.723 1118.97 957.473 1099.8 946.476 C 1093.26 942.741 1088.46 936.561 1086.47 929.293 C 1081.56 911.08 1093.86 901.426 1109.88 897.233 L 1109.96 849.943 C 1101.94 846.944 1093.8 845.804 1087.41 839.589 C 1077.45 829.887 1074.4 813.01 1079.2 800.139 C 1082.51 791.438 1089.16 784.418 1097.67 780.632 C 1106.97 776.475 1117.56 776.244 1127.04 779.992 C 1156.35 791.265 1156.92 834.679 1128.13 845.931 C 1124.56 847.329 1120.7 848.576 1117.07 849.879 C 1136.41 850.255 1172.5 851.21 1191.28 849.973 C 1178.72 845.143 1168.66 840.15 1162.81 826.748 C 1159.06 818.231 1158.99 808.543 1162.61 799.972 C 1166.6 790.616 1174.17 783.254 1183.64 779.541 C 1201.13 772.598 1225.17 780.077 1231 799.022 C 1239.65 827.114 1228.06 841.047 1202.71 849.971 C 1225.97 850.018 1252.29 850.693 1275.3 849.977 z" fill="rgb(20,17,15)" transform="translate(0,0)"></path>
<path d="M 1191.28 849.973 L 1192.91 850.348 C 1195.12 853.297 1194.04 891.655 1194 897.838 C 1181.6 901.697 1174.9 905.344 1171.34 918.509 L 1139.38 918.48 C 1135.11 906.252 1128.91 902.033 1117.14 897.633 L 1117.07 849.879 C 1136.41 850.255 1172.5 851.21 1191.28 849.973 z" fill="rgb(251,250,248)" transform="translate(0,0)"></path>
<path d="M 1202.71 849.971 C 1225.97 850.018 1252.29 850.693 1275.3 849.977 L 1276.03 850.196 C 1278.64 853.237 1277.59 891.299 1277.51 897.48 C 1275.62 898.143 1273.75 898.861 1271.9 899.633 C 1261.75 903.936 1258.68 908.266 1254.62 918.096 L 1223.9 918.046 C 1219.39 904.442 1214.6 901.431 1200.92 897.503 C 1200.87 888.722 1200.14 858.38 1201.2 851.027 L 1202.71 849.971 z" fill="rgb(251,250,248)" transform="translate(0,0)"></path>
<path d="M 1021.79 546.637 C 1025.55 546.071 1029.38 546.332 1033.03 547.401 C 1044.3 550.706 1051.97 561.127 1051.78 572.869 C 1051.6 584.61 1043.59 594.781 1032.23 597.725 L 1031.85 598.985 C 1030.63 602.624 1031.18 621.479 1031.01 626.862 C 1028.11 626.75 1025.76 626.669 1022.85 626.299 C 1008.75 630.337 1003.34 633.658 998.606 647.874 C 989.851 648.145 979.153 648.096 970.395 647.88 C 967.891 635.88 957.394 627.226 945.137 627.056 C 932.88 626.885 922.147 635.245 919.31 647.17 C 918.63 650.028 918.437 652.98 918.737 655.902 L 889.101 655.76 C 888.703 652.688 888.437 650.679 888.37 647.56 C 886.105 640.988 882.095 634.216 875.525 631.407 C 838.268 615.476 815.331 670.248 859.001 679.673 C 859.048 688.584 858.669 704.012 859.443 712.394 C 854.429 715.96 801.757 713.765 791.171 714.275 L 784.171 715.907 C 784.34 679.524 783.978 643.141 783.084 606.768 L 790.875 606.542 C 810.799 604.391 821.922 590.847 824.841 571.913 L 824.545 564.078 L 1000.86 564.348 C 1003.93 554.962 1012.03 548.108 1021.79 546.637 z" fill="rgb(251,250,248)" transform="translate(0,0)"></path>
<path d="M 1021.79 546.637 C 1025.55 546.071 1029.38 546.332 1033.03 547.401 C 1044.3 550.706 1051.97 561.127 1051.78 572.869 C 1051.6 584.61 1043.59 594.781 1032.23 597.725 C 1028.93 598.58 1025.49 598.78 1022.12 598.315 C 1009.05 596.515 999.381 585.253 999.577 572.065 C 999.616 569.443 1000.05 566.841 1000.86 564.348 C 1003.93 554.962 1012.03 548.108 1021.79 546.637 z" fill="rgb(23,82,204)" transform="translate(0,0)"></path>
<path d="M 824.545 564.078 L 1000.86 564.348 C 1000.05 566.841 999.616 569.443 999.577 572.065 L 824.841 571.913 L 824.545 564.078 z" fill="rgb(13,148,136)" transform="translate(0,0)"></path>
<path d="M 783.084 606.768 L 790.875 606.542 L 791.171 714.275 L 784.171 715.907 C 784.34 679.524 783.978 643.141 783.084 606.768 z" fill="rgb(13,148,136)" transform="translate(0,0)"></path>
<path d="M 888.37 647.56 C 896.767 647.732 911.077 647.737 919.31 647.17 C 918.63 650.028 918.437 652.98 918.737 655.902 L 889.101 655.76 C 888.703 652.688 888.437 650.679 888.37 647.56 z" fill="rgb(13,148,136)" transform="translate(0,0)"></path>
<path d="M 1022.12 598.315 C 1025.49 598.78 1028.93 598.58 1032.23 597.725 L 1031.85 598.985 C 1030.63 602.624 1031.18 621.479 1031.01 626.862 C 1028.11 626.75 1025.76 626.669 1022.85 626.299 C 1022.84 617.579 1022.85 606.884 1022.12 598.315 z" fill="rgb(91,69,199)" transform="translate(0,0)"></path>
<path d="M 1022.85 626.299 C 1025.76 626.669 1028.11 626.75 1031.01 626.862 C 1044.3 631.427 1047.51 634.244 1051.79 647.816 C 1060.86 647.483 1073.99 648.032 1082.49 647.197 C 1081.79 650.08 1081.59 653.061 1081.89 656.012 C 1083.1 667.929 1092.22 677.516 1104.06 679.316 C 1104.4 690.404 1104.18 703.144 1104.89 713.992 L 866.179 713.907 L 866.188 679.061 C 880.691 675.223 886.035 670.565 889.101 655.76 L 918.737 655.902 C 918.437 652.98 918.63 650.028 919.31 647.17 C 922.147 635.245 932.88 626.885 945.137 627.056 C 957.394 627.226 967.891 635.88 970.395 647.88 C 979.153 648.096 989.851 648.145 998.606 647.874 C 1003.34 633.658 1008.75 630.337 1022.85 626.299 z" fill="rgb(251,250,248)" transform="translate(0,0)"></path>
<path d="M 919.31 647.17 C 922.147 635.245 932.88 626.885 945.137 627.056 C 957.394 627.226 967.891 635.88 970.395 647.88 C 970.954 650.557 971.089 653.304 970.797 656.023 C 969.366 669.342 958.109 679.431 944.713 679.4 C 931.317 679.369 920.106 669.228 918.737 655.902 C 918.437 652.98 918.63 650.028 919.31 647.17 z" fill="rgb(23,82,204)" transform="translate(0,0)"></path>
<path d="M 1022.85 626.299 C 1025.76 626.669 1028.11 626.75 1031.01 626.862 C 1044.3 631.427 1047.51 634.244 1051.79 647.816 C 1052 650.815 1052.05 652.584 1051.98 655.607 C 1042.06 686.474 1008.36 685.148 999.173 655.777 C 998.993 653.122 998.845 650.53 998.606 647.874 C 1003.34 633.658 1008.75 630.337 1022.85 626.299 z" fill="rgb(23,82,204)" transform="translate(0,0)"></path>
<path d="M 1082.49 647.197 C 1081.79 650.08 1081.59 653.061 1081.89 656.012 C 1072.83 655.477 1061.24 655.706 1051.98 655.607 C 1052.05 652.584 1052 650.815 1051.79 647.816 C 1060.86 647.483 1073.99 648.032 1082.49 647.197 z" fill="rgb(13,148,136)" transform="translate(0,0)"></path>
<path d="M 970.395 647.88 C 979.153 648.096 989.851 648.145 998.606 647.874 C 998.845 650.53 998.993 653.122 999.173 655.777 C 989.72 655.932 980.231 655.787 970.797 656.023 C 971.089 653.304 970.954 650.557 970.395 647.88 z" fill="rgb(13,148,136)" transform="translate(0,0)"></path>
<path d="M 857.465 850.722 C 860.533 842.379 855.251 786.64 860.115 778.874 L 861.643 778.681 C 865.008 783.762 864.08 839.018 864.751 850.005 C 887.415 850.029 911.318 849.662 933.88 850.205 C 935.417 829.08 931.988 802.14 934.981 781.048 C 935.096 780.236 935.695 780.25 936.831 779.652 L 939.079 780.798 C 942.249 785.316 940.877 840.276 940.931 850.003 L 941.116 898.429 C 984.569 908.491 965.915 957.068 930.351 949.513 C 919.258 947.156 913.817 935.997 911.816 925.585 L 885.661 925.196 C 883.341 941.824 873.847 953.197 855.851 950.098 C 848.419 948.811 841.834 944.548 837.618 938.294 C 825.144 920.098 836.989 902.382 857.131 898.376 C 857.201 883.726 856.756 865.046 857.465 850.722 z" fill="rgb(20,17,15)" transform="translate(0,0)"></path>
<path d="M 864.751 850.005 C 887.415 850.029 911.318 849.662 933.88 850.205 C 933.275 865.199 933.746 883.656 933.723 898.917 C 921.275 902.567 917.122 906.604 913.105 918.931 L 885.886 918.918 C 882.338 905.814 877.212 902.86 864.881 898.551 C 864.965 882.369 864.922 866.186 864.751 850.005 z" fill="rgb(251,250,248)" transform="translate(0,0)"></path>
<path d="M 1170.59 405.4 C 1176.6 365.222 1230.62 375.993 1225.05 413.559 C 1223.26 425.644 1211.29 431.261 1200.88 433.806 L 1200.8 714.087 L 1193.24 714.139 L 1112.84 714.101 C 1110.19 714.105 1107.54 714.069 1104.89 713.992 C 1104.18 703.144 1104.4 690.404 1104.06 679.316 C 1092.22 677.516 1083.1 667.929 1081.89 656.012 C 1081.59 653.061 1081.79 650.08 1082.49 647.197 C 1084.97 636.93 1093.37 629.149 1103.79 627.452 C 1104.2 590.631 1104.37 553.808 1104.3 516.985 C 1095.38 515.288 1089.07 512.981 1083.73 504.949 C 1079.93 499.188 1078.66 492.117 1080.22 485.393 C 1082.87 474.005 1091.55 467.879 1102.18 464.783 C 1101.93 448.362 1099.65 427.454 1111.9 414.684 C 1124.95 401.083 1152.86 404.917 1170.59 405.4 z" fill="rgb(251,250,248)" transform="translate(0,0)"></path>
<path d="M 1170.59 405.4 C 1176.6 365.222 1230.62 375.993 1225.05 413.559 C 1223.26 425.644 1211.29 431.261 1200.88 433.806 L 1200.8 714.087 L 1193.24 714.139 C 1194.19 620.621 1194.32 527.097 1193.65 433.577 C 1180.07 428.979 1174.87 426.558 1171.24 412.167 L 1142.23 412.007 C 1105.44 412.058 1109.76 436.137 1110.57 464.526 C 1112.12 465.036 1113.65 465.597 1115.16 466.208 C 1122.64 469.277 1128.78 474.637 1131.8 482.262 C 1134.34 488.624 1134.19 495.741 1131.4 501.994 C 1127.48 510.592 1121.26 514.151 1112.91 517.392 C 1112.73 553.409 1111.96 591.69 1113.08 627.606 C 1110.02 627.003 1106.87 626.951 1103.79 627.452 C 1104.2 590.631 1104.37 553.808 1104.3 516.985 C 1095.38 515.288 1089.07 512.981 1083.73 504.949 C 1079.93 499.188 1078.66 492.117 1080.22 485.393 C 1082.87 474.005 1091.55 467.879 1102.18 464.783 C 1101.93 448.362 1099.65 427.454 1111.9 414.684 C 1124.95 401.083 1152.86 404.917 1170.59 405.4 z" fill="rgb(91,69,199)" transform="translate(0,0)"></path>
<path d="M 1103.79 627.452 C 1106.87 626.951 1110.02 627.003 1113.08 627.606 C 1125.38 630.028 1134.25 640.812 1134.26 653.35 C 1134.27 665.889 1125.4 676.681 1113.1 679.114 C 1110.13 679.704 1107.07 679.772 1104.06 679.316 C 1092.22 677.516 1083.1 667.929 1081.89 656.012 C 1081.59 653.061 1081.79 650.08 1082.49 647.197 C 1084.97 636.93 1093.37 629.149 1103.79 627.452 z" fill="rgb(23,82,204)" transform="translate(0,0)"></path>
<path d="M 1104.06 679.316 C 1107.07 679.772 1110.13 679.704 1113.1 679.114 C 1112.78 690.599 1112.86 702.572 1112.84 714.101 C 1110.19 714.105 1107.54 714.069 1104.89 713.992 C 1104.18 703.144 1104.4 690.404 1104.06 679.316 z" fill="rgb(91,69,199)" transform="translate(0,0)"></path>
<path d="M 833.478 404.724 C 837.074 387.834 849.282 376.112 867.327 380.273 C 874.183 381.836 880.113 386.109 883.764 392.119 C 886.35 396.348 887.031 400.242 887.456 405.175 L 914.617 405.691 C 919.572 365.44 970.792 376.502 967.277 411.991 C 966.199 422.875 955.689 429.428 946.111 432.476 L 946.054 460.878 C 972.83 467.643 976.059 497.663 955.397 509.268 C 948.984 512.809 941.423 513.644 934.391 511.589 C 925.44 508.95 921.197 503.93 916.11 496.654 L 897.4 496.686 L 896.314 496.735 C 878.59 497.444 860.367 490.879 859.633 470.37 C 859.374 457.715 859.293 445.057 859.391 432.399 C 844.276 428.684 840.084 426.595 834.157 411.88 L 813.361 411.874 C 808.875 421.269 805.143 427.661 794.782 431.356 C 793.258 431.89 791.718 432.376 790.163 432.813 L 790.487 452.766 C 802.458 455.027 811.873 459.265 819.073 469.609 C 831.141 486.948 825.458 511.439 807.598 522.385 C 800.096 527.105 795.198 528.128 786.79 530.325 C 806.564 534.168 821.8 541.889 824.545 564.078 L 824.841 571.913 C 821.922 590.847 810.799 604.391 790.875 606.542 L 783.084 606.768 C 763.399 603.445 751.633 590.384 749.283 570.839 C 749.696 567.629 749.745 566.368 749.703 563.104 C 750.471 557.778 752.449 552.699 755.483 548.254 C 763.704 536.269 774.631 532.67 787.921 530.123 C 772.572 526.532 766.329 523.852 755.933 511.85 C 754.871 508.533 754.277 507.654 752.441 504.664 C 749.118 496.753 749.233 492.605 750.402 484.25 L 752.863 476.148 C 757.869 465.991 762.794 459.621 773.983 455.766 C 777.144 454.695 780.366 453.815 783.631 453.129 L 783.388 432.483 C 743.589 424.381 757.368 372.593 794.373 381.011 C 805.155 383.464 811.121 394.395 812.565 404.801 L 833.478 404.724 z" fill="rgb(23,82,204)" transform="translate(0,0)"></path>
<path d="M 866.363 431.263 C 877.292 430.043 883.992 421.963 886.975 411.901 C 896.113 412.066 906.191 412.05 915.204 412.866 C 920.043 425.598 925.469 428.971 938.294 432.777 L 938.738 461.205 C 921.078 464.597 915.313 471.89 914.842 489.678 L 892.448 490.187 C 857.902 487.044 865.881 458.974 866.363 431.263 z" fill="rgb(251,250,248)" transform="translate(0,0)"></path>
<path d="M 859.633 470.37 C 860.109 457.82 859.325 445.043 860.377 432.626 C 860.439 431.892 865.717 431.363 866.363 431.263 C 865.881 458.974 857.902 487.044 892.448 490.187 C 900.532 491.885 905.573 491.004 913.341 491.234 C 913.669 491.694 913.626 494.386 913.266 494.842 C 908.199 495.593 904.415 494.776 897.4 496.686 L 896.314 496.735 C 878.59 497.444 860.367 490.879 859.633 470.37 z" fill="rgb(14,22,135)" transform="translate(0,0)"></path>
<path d="M 701.518 627.509 C 704.324 627.703 705.466 627.72 708.322 627.52 C 716.451 628.412 723.022 630.612 728.415 637.277 C 732.753 642.678 734.675 649.627 733.728 656.49 C 731.984 669.334 722.455 675.336 710.999 678.654 C 711.718 711.774 713.185 729.213 673.192 729.83 C 668.877 729.892 664.561 729.927 660.245 729.935 C 659.492 746.045 651.421 758.689 633.758 757.816 C 625.902 757.384 618.541 753.841 613.301 747.972 C 598.944 731.867 611.45 706.906 630.919 706.714 C 639.011 705.957 636.788 705.916 637.336 697.58 C 637.384 698.971 637.645 703.729 638.359 704.249 C 649.969 712.71 651.713 709.72 658.791 722.998 C 701.754 723.511 705.343 721.727 703.921 679.221 C 675.446 670.374 671.297 638.203 701.518 627.509 z" fill="rgb(23,82,204)" transform="translate(0,0)"></path>
<path d="M 1400.08 494.9 C 1400.48 493.18 1400.92 491.47 1401.4 489.77 C 1411.2 455.364 1463.98 469.223 1451.48 504.412 C 1449.03 511.154 1443.97 516.63 1437.45 519.609 C 1420.48 527.319 1408.5 516.982 1401.6 501.983 C 1357.86 501.143 1358.57 505.729 1359.25 547.044 L 1351.38 547.647 C 1354.05 501.897 1346.41 495.308 1400.08 494.9 z" fill="rgb(13,148,136)" transform="translate(0,0)"></path>
<path d="M 630.53 679.046 C 620.694 678.22 611.187 669.237 608.253 659.99 C 606.064 653.2 606.85 645.8 610.415 639.621 C 614.054 633.343 619.884 628.814 627.003 627.195 C 634.4 625.579 642.136 627.083 648.389 631.352 C 654.534 635.488 658.626 641.084 659.829 648.501 C 660.985 655.32 659.277 662.313 655.11 667.833 C 651.209 673.028 643.811 677.585 637.261 678.122 C 634.26 678.182 633.449 678.173 630.53 679.046 z" fill="rgb(23,82,204)" transform="translate(0,0)"></path>
<path d="M 627.058 470.022 C 641.154 466.428 655.478 475.01 658.96 489.134 C 662.441 503.258 653.746 517.514 639.595 520.883 C 625.601 524.214 611.54 515.637 608.097 501.671 C 604.655 487.705 613.12 473.575 627.058 470.022 z" fill="rgb(13,148,136)" transform="translate(0,0)"></path>
<path d="M 1020.96 520.695 C 1012.89 518.811 1006.68 516.763 1001.88 509.586 C 994.195 498.11 998.28 479.698 1010.45 472.905 C 1030.98 461.451 1056.37 478.375 1049.52 502.174 C 1046.46 512.816 1040.24 517.284 1030.36 520.69 C 1027.23 520.457 1024.09 520.459 1020.96 520.695 z" fill="rgb(23,82,204)" transform="translate(0,0)"></path>
<path d="M 701.518 627.509 C 702.924 596.126 691.072 562.332 738 563.142 C 741.767 563.207 745.916 563.173 749.703 563.104 C 749.745 566.368 749.696 567.629 749.283 570.839 C 729.564 570.514 708.606 567.707 708.105 595.622 C 707.925 605.655 707.58 617.636 708.322 627.52 C 705.466 627.72 704.324 627.703 701.518 627.509 z" fill="rgb(13,148,136)" transform="translate(0,0)"></path>
<path d="M 750.402 484.25 C 739.079 483.996 670.609 485.619 666.659 482.42 C 666.96 478.462 666.308 479.62 668.569 477.015 C 673.884 474.978 742.373 476.142 752.863 476.148 L 750.402 484.25 z" fill="rgb(13,148,136)" transform="translate(0,0)"></path>
<path d="M 752.441 504.664 C 754.277 507.654 754.871 508.533 755.933 511.85 C 743.914 511.556 670.981 512.88 666.052 509.954 L 666.197 508.797 L 667.221 510.742 L 666.276 508.664 C 671.831 502.607 692.715 504.692 701.118 504.726 C 718.226 504.811 735.334 504.79 752.441 504.664 z" fill="rgb(13,148,136)" transform="translate(0,0)"></path>
<path d="M 1020.96 520.695 C 1024.09 520.459 1027.23 520.457 1030.36 520.69 C 1030.13 525.821 1029.1 544.779 1033.03 547.401 C 1029.38 546.332 1025.55 546.071 1021.79 546.637 C 1021.61 540.468 1021.8 525.892 1020.96 520.695 z" fill="rgb(91,69,199)" transform="translate(0,0)"></path>
<path d="M 630.53 679.046 C 633.449 678.173 634.26 678.182 637.261 678.122 C 637.194 684.677 637.286 691.044 637.336 697.58 C 636.788 705.916 639.011 705.957 630.919 706.714 C 630.806 697.533 630.936 688.186 630.53 679.046 z" fill="rgb(14,22,135)" transform="translate(0,0)"></path>
<metadata><recraft-signature>{"signed_by": "recraft", "signature_b64": "Pe+i9nVdFPCaRcV3UUEAe+iPBK55swdyPLMdcOhmNZxlY3/n4pCaDwRqy+JgqauxNXXND1WqiSXo/yTEYex2CQ==", "signing_algo": "Ed25519", "generation_timestamp": 1784247013, "identifier": "b83266f5-2799-4896-9f3a-883c0446dff6"}</recraft-signature></metadata></svg>